# xmcd CD database file
#
# Track frame offsets:
#	150
#	15319
#	28312
#	42201
#	53096
#	63675
#	75138
#	86780
#	102458
#	115903
#	130741
#	142116
#	156936
#	171878
#	191495
#	205434
#
# Disc length: 2918 seconds
#
# Revision: 1
# Processed by: cddbd v1.5.1PL2 Copyright (c) Steve Scherf et al.
# Submitted via: CDex 1.51
#
DISCID=dc0b6410
DTITLE=Various Artist - Ultimate Piano Works [CD 5)
DYEAR=1900
DGENRE=Jazz
TTITLE0=Pete Johnson - Shuffle Boogie
TTITLE1=Earl Hines - Blue Keys
TTITLE2=George Shearing - Easy Living
TTITLE3=Erroll Garner - Erroll's Peril
TTITLE4=Art Tatum - Emaline
TTITLE5=Billy Kyle - Between Sets
TTITLE6=Oscar Peterson - To A Wild Rose
TTITLE7=Willie Smith - Contrary Motions
TTITLE8=Erroll Garner - I Get A Kick Out Of You
TTITLE9=Thelonius Monk - Ask Me Now
TTITLE10=Dave Brubeck - Undecided
TTITLE11=Bud Powell - The Last Time I Saw Paris
TTITLE12=Erroll Garner - Robin's Nest
TTITLE13=Earl Hines - The Father's Gateway
TTITLE14=Art Tatum - Dixieland Band
TTITLE15=Joe Sullivan -  Blues In My Heart
EXTD=
EXTT0=
EXTT1=
EXTT2=
EXTT3=
EXTT4=
EXTT5=
EXTT6=
EXTT7=
EXTT8=
EXTT9=
EXTT10=
EXTT11=
EXTT12=
EXTT13=
EXTT14=
EXTT15=
PLAYORDER=
